# xmcd
#
# Track frame offsets: 
#        150
#        47802
#        55205
#        81057
#        98715
#        139465
#        152102
#        164347
#        169902
#
# Disc length: 2567 seconds
#
# Revision: 5
# Processed by: cddbd v1.5.2PL0 Copyright (c) Steve Scherf et al.
# Submitted via: ExactAudioCopyFreeDBPlugin 1.0
#
DISCID=750a0509
DTITLE=Solution - Cordon Bleu
DYEAR=1975
DGENRE=Progressive Rock
TTITLE0=Chappaqua
TTITLE1=Third Line (part 1)
TTITLE2=Third Line (part 2)
TTITLE3=A Song For You
TTITLE4=Whirligig
TTITLE5=Last Detail (part 1)
TTITLE6=Last Detail (part 2)
TTITLE7=Black Pearl (part 1)
TTITLE8=Black Pearl (part 2)
EXTD=
EXTT0=
EXTT1=
EXTT2=
EXTT3=
EXTT4=
EXTT5=
EXTT6=
EXTT7=
EXTT8=
PLAYORDER=
